<svg width="63" height="69" viewBox="0 0 63 69" fill="none" xmlns="http://www.w3.org/2000/svg">
<path d="M35.8106 15.0938C34.6932 15.0938 33.6216 15.5482 32.8315 16.3569C32.0414 17.1657 31.5976 18.2626 31.5976 19.4063C31.5976 20.5501 32.0414 21.647 32.8315 22.4557C33.6216 23.2645 34.6932 23.7188 35.8106 23.7188C36.9279 23.7188 37.9995 23.2645 38.7896 22.4557C39.5797 21.647 40.0236 20.5501 40.0236 19.4063C40.0236 18.2626 39.5797 17.1657 38.7896 16.3569C37.9995 15.5482 36.9279 15.0938 35.8106 15.0938ZM14.7455 19.4063C14.7455 18.2626 15.1894 17.1657 15.9795 16.3569C16.7696 15.5482 17.8412 15.0938 18.9585 15.0938C20.0759 15.0938 21.1475 15.5482 21.9376 16.3569C22.7277 17.1657 23.1715 18.2626 23.1715 19.4063C23.1715 20.5501 22.7277 21.647 21.9376 22.4557C21.1475 23.2645 20.0759 23.7188 18.9585 23.7188C17.8412 23.7188 16.7696 23.2645 15.9795 22.4557C15.1894 21.647 14.7455 20.5501 14.7455 19.4063ZM29.4911 2.15626C29.4911 1.58438 29.2691 1.03593 28.8741 0.631554C28.479 0.227177 27.9432 0 27.3846 0C26.8259 0 26.2901 0.227177 25.895 0.631554C25.5 1.03593 25.2781 1.58438 25.2781 2.15626V4.31252H12.639C10.963 4.31252 9.35559 4.99405 8.17046 6.20718C6.98532 7.42031 6.31951 9.06566 6.31951 10.7813V28.0313C6.31951 29.747 6.98532 31.3923 8.17046 32.6055C9.35559 33.8186 10.963 34.5001 12.639 34.5001H33.0173C37.3989 31.3369 42.7201 29.8349 48.0662 30.2523C48.3148 29.5623 48.4496 28.8119 48.4496 28.0313V10.7813C48.4496 9.06566 47.7838 7.42031 46.5987 6.20718C45.4135 4.99405 43.8061 4.31252 42.1301 4.31252H29.4911V2.15626ZM12.639 8.62503H42.1301C42.6888 8.62503 43.2246 8.85221 43.6196 9.25658C44.0147 9.66096 44.2366 10.2094 44.2366 10.7813V28.0313C44.2366 28.6032 44.0147 29.1517 43.6196 29.5561C43.2246 29.9604 42.6888 30.1876 42.1301 30.1876H12.639C12.0803 30.1876 11.5445 29.9604 11.1495 29.5561C10.7545 29.1517 10.5325 28.6032 10.5325 28.0313V10.7813C10.5325 10.2094 10.7545 9.66096 11.1495 9.25658C11.5445 8.85221 12.0803 8.62503 12.639 8.62503ZM21.065 40.9689H26.9211C26.0575 42.323 25.3286 43.772 24.7472 45.2943H7.62133C6.717 45.2955 5.85009 45.664 5.21103 46.319C4.57196 46.974 4.21301 47.8618 4.21301 48.7875V50.6721C4.21301 53.6477 4.76491 56.9511 7.59184 59.5946C10.3387 62.1563 15.3703 64.3983 25.4605 64.6312C23.9438 68.9437 24.4704 67.3265 23.969 68.9351H23.9438V68.9437H23.8806H23.4171V68.9351C12.3959 68.7927 8.65773 66.4257 4.75227 62.7816C1.06589 59.3316 0.164308 55.1183 0.0210655 51.7588H0V48.7832C0 44.475 3.41254 40.9818 7.62555 40.9818H21.065V40.9689Z" fill="white"/>
<path d="M28.4428 68.9999L30.7212 60.43C29.2199 57.7957 28.4312 54.7996 28.4361 51.7498C28.4361 42.2226 35.9807 34.4998 45.2881 34.4998C54.5955 34.4998 62.1401 42.2226 62.1401 51.7498C62.1401 61.277 54.5955 68.9999 45.2881 68.9999C42.31 69.0048 39.3842 68.198 36.8115 66.6625L28.4428 68.9999ZM39.2062 43.6561C38.9886 43.6699 38.7759 43.7286 38.581 43.8286C38.3982 43.9346 38.2313 44.067 38.0855 44.2219C37.8833 44.4168 37.7687 44.5859 37.6457 44.7497C37.0229 45.5795 36.6878 46.5979 36.6936 47.6443C36.6969 48.4895 36.9126 49.3124 37.2497 50.0817C37.9389 51.6377 39.0731 53.2851 40.5712 54.8117C40.9318 55.1791 41.284 55.5483 41.6632 55.8915C43.5227 57.5673 45.7385 58.7758 48.1344 59.4209L49.0933 59.571C49.405 59.5882 49.7168 59.5641 50.0303 59.5486C50.5211 59.5226 51.0003 59.3866 51.434 59.1501C51.6547 59.0337 51.8701 58.9071 52.0795 58.7706C52.0795 58.7706 52.1519 58.7223 52.2901 58.6153C52.5176 58.4428 52.6575 58.3204 52.8462 58.1185C52.9861 57.9702 53.1074 57.796 53.2001 57.5976C53.3316 57.3164 53.463 56.7799 53.5169 56.3331C53.5574 55.9916 53.5456 55.8053 53.5405 55.6897C53.5338 55.5051 53.3838 55.3137 53.2203 55.2326L52.2396 54.7824C52.2396 54.7824 50.7734 54.1286 49.8786 53.7111C49.7842 53.669 49.6831 53.6451 49.5803 53.6404C49.465 53.6283 49.3485 53.6416 49.2386 53.6794C49.1288 53.7171 49.0281 53.7786 48.9433 53.8595V53.856C48.9349 53.856 48.822 53.9544 47.6036 55.4655C47.5336 55.5617 47.4373 55.6344 47.3269 55.6743C47.2164 55.7142 47.0968 55.7196 46.9834 55.6897C46.8736 55.6597 46.766 55.6216 46.6615 55.5759C46.4526 55.4862 46.3801 55.4517 46.2369 55.3878L46.2284 55.3844C45.2643 54.9535 44.3717 54.3716 43.5827 53.6594C43.3703 53.4696 43.1732 53.2626 42.9709 53.0625C42.3079 52.4126 41.7301 51.6774 41.252 50.8752L41.1526 50.7114C41.0812 50.6012 41.0234 50.4825 40.9807 50.3577C40.9167 50.1042 41.0835 49.9006 41.0835 49.9006C41.0835 49.9006 41.493 49.4418 41.6834 49.1934C41.842 48.9869 41.9899 48.7721 42.1267 48.5499C42.3255 48.2222 42.3879 47.8858 42.2834 47.6253C41.8115 46.4454 41.3228 45.2707 40.8206 44.1046C40.7212 43.8734 40.4263 43.7078 40.1583 43.6751C40.0673 43.6647 39.9763 43.6544 39.8853 43.6475C39.659 43.636 39.4322 43.64 39.2062 43.6561Z" fill="white"/>
</svg>
