<svg width="84" height="86" viewBox="0 0 84 86" fill="none" xmlns="http://www.w3.org/2000/svg">
<g clip-path="url(#clip0_220_3)">
<path d="M28.875 72.5625C30.3247 72.5625 31.5 71.3593 31.5 69.875C31.5 68.3907 30.3247 67.1875 28.875 67.1875C27.4253 67.1875 26.25 68.3907 26.25 69.875C26.25 71.3593 27.4253 72.5625 28.875 72.5625Z" stroke="white" stroke-width="6" stroke-linecap="round" stroke-linejoin="round"/>
<path d="M65.625 72.5625C67.0747 72.5625 68.25 71.3593 68.25 69.875C68.25 68.3907 67.0747 67.1875 65.625 67.1875C64.1753 67.1875 63 68.3907 63 69.875C63 71.3593 64.1753 72.5625 65.625 72.5625Z" stroke="white" stroke-width="6" stroke-linecap="round" stroke-linejoin="round"/>
<path d="M7.875 13.4375H18.375L26.25 59.125H68.25" stroke="white" stroke-width="6" stroke-linecap="round" stroke-linejoin="round"/>
<path d="M26.25 48.375H67.1738C67.4773 48.3752 67.7715 48.2677 68.0063 48.0708C68.2412 47.8739 68.4021 47.5997 68.4616 47.295L73.1866 23.1075C73.2248 22.9124 73.2201 22.7112 73.1731 22.5182C73.126 22.3252 73.0377 22.1453 72.9144 21.9915C72.7912 21.8378 72.6362 21.7139 72.4606 21.6289C72.2849 21.5439 72.093 21.4999 71.8987 21.5H21" stroke="white" stroke-width="6" stroke-linecap="round" stroke-linejoin="round"/>
<path d="M71.9982 5.66663C70.0184 5.66754 68.4379 7.14598 68.1157 9.00241C64.3824 10.6061 61.9444 14.3839 61.9444 18.5748V25.5749L59.9202 27.6742C59.6506 27.9538 59.5 28.327 59.5 28.7154V29.983C59.5 30.8114 60.1716 31.483 61 31.483H68.0621C68.1168 32.4526 68.5125 33.3798 69.1917 34.0843C69.9269 34.8468 70.9359 35.2857 72 35.2857C74.1563 35.2857 75.8218 33.5638 75.938 31.483H83C83.8284 31.483 84.5 30.8114 84.5 29.983V28.7154C84.5 28.327 84.3494 27.9538 84.0798 27.6742L82.0556 25.5749V19.5762C82.0556 19.1094 81.8383 18.6693 81.4678 18.3854C81.3881 18.3244 81.3032 18.2721 81.2147 18.2287C83.1732 17.2638 84.5 15.2003 84.5 12.8707C84.5 9.64785 81.9606 6.93421 78.7222 6.93421C77.4467 6.93421 76.2795 7.35523 75.3333 8.06256C75.3325 7.73701 75.2261 7.411 75.0123 7.13924C74.6537 6.6833 74.198 6.31169 73.6757 6.05532C73.1537 5.79909 72.5805 5.6655 71.9982 5.66663ZM71.9982 5.66663C71.9988 5.66663 71.9994 5.66663 72 5.66663V7.16663L71.9964 5.66664C71.997 5.66664 71.9976 5.66663 71.9982 5.66663Z" fill="white" stroke="#81DE76" stroke-width="3" stroke-linejoin="round"/>
</g>
<defs>
<clipPath id="clip0_220_3">
<rect width="84" height="86" fill="white"/>
</clipPath>
</defs>
</svg>
