<svg width="84" height="84" viewBox="0 0 84 84" fill="none" xmlns="http://www.w3.org/2000/svg">
<path d="M10.5 49L12.25 49.245L28.245 33.25C27.9241 32.0747 27.9236 30.8349 28.2437 29.6594C28.5637 28.4839 29.1926 27.4154 30.065 26.565C32.795 23.8 37.205 23.8 39.935 26.565C41.79 28.385 42.385 30.975 41.755 33.25L50.75 42.245L52.5 42C53.13 42 53.725 42 54.25 42.245L66.745 29.75C66.5 29.225 66.5 28.63 66.5 28C66.5 26.1435 67.2375 24.363 68.5503 23.0503C69.863 21.7375 71.6435 21 73.5 21C75.3565 21 77.137 21.7375 78.4497 23.0503C79.7625 24.363 80.5 26.1435 80.5 28C80.5 29.8565 79.7625 31.637 78.4497 32.9497C77.137 34.2625 75.3565 35 73.5 35C72.87 35 72.275 35 71.75 34.755L59.255 47.25C59.5 47.775 59.5 48.37 59.5 49C59.5 50.8565 58.7625 52.637 57.4497 53.9497C56.137 55.2625 54.3565 56 52.5 56C50.6435 56 48.863 55.2625 47.5503 53.9497C46.2375 52.637 45.5 50.8565 45.5 49L45.745 47.25L36.75 38.255C35.63 38.5 34.37 38.5 33.25 38.255L17.255 54.25L17.5 56C17.5 57.8565 16.7625 59.637 15.4497 60.9497C14.137 62.2625 12.3565 63 10.5 63C8.64348 63 6.86301 62.2625 5.55025 60.9497C4.2375 59.637 3.5 57.8565 3.5 56C3.5 54.1435 4.2375 52.363 5.55025 51.0503C6.86301 49.7375 8.64348 49 10.5 49Z" fill="white"/>
</svg>
