<svg width="84" height="86" viewBox="0 0 84 86" fill="none" xmlns="http://www.w3.org/2000/svg">
<g clip-path="url(#clip0_220_12)">
<path d="M74.8125 11.2875C73.91 10.6897 72.8778 10.3281 71.8067 10.2344C70.7357 10.1406 69.6585 10.3177 68.67 10.75L36.2775 23.8113C35.5106 24.1308 34.6905 24.2951 33.8625 24.295H13.125C11.3845 24.295 9.71532 25.0029 8.48461 26.2629C7.2539 27.5229 6.5625 29.2319 6.5625 31.0138V31.5513H0V47.6763H6.5625V48.375C6.60362 50.1289 7.31314 51.7967 8.53942 53.022C9.7657 54.2474 11.4115 54.933 13.125 54.9325L21 72.025C21.5332 73.1761 22.3728 74.1498 23.4221 74.8343C24.4715 75.5189 25.6882 75.8865 26.9325 75.895H30.24C31.9714 75.8809 33.6271 75.1667 34.8465 73.9083C36.0659 72.6498 36.7501 70.9489 36.75 69.1763V55.5775L68.67 68.6388C69.4551 68.9587 70.2925 69.1228 71.1375 69.1225C72.4485 69.1009 73.7251 68.6901 74.8125 67.94C75.676 67.3431 76.3883 66.5443 76.8904 65.6096C77.3925 64.675 77.67 63.6313 77.7 62.565V16.8238C77.6952 15.7301 77.4297 14.6541 76.9265 13.6893C76.4232 12.7245 75.6976 11.9 74.8125 11.2875ZM30.1875 31.0138V48.375H13.125V31.0138H30.1875ZM30.1875 69.1763H26.88L20.4225 54.9325H30.1875V69.1763ZM38.6925 49.1813C38.0692 48.8552 37.4192 48.5854 36.75 48.375V30.6375C37.4128 30.4975 38.0627 30.2997 38.6925 30.0463L71.1375 16.8238V62.4038L38.6925 49.1813ZM77.8575 32.895V46.3325C79.598 46.3325 81.2672 45.6247 82.4979 44.3647C83.7286 43.1047 84.42 41.3957 84.42 39.6138C84.42 37.8319 83.7286 36.1229 82.4979 34.8629C81.2672 33.6029 79.598 32.895 77.8575 32.895Z" fill="white"/>
</g>
<defs>
<clipPath id="clip0_220_12">
<rect width="84" height="86" fill="white"/>
</clipPath>
</defs>
</svg>
