<svg width="84" height="84" viewBox="0 0 84 84" fill="none" xmlns="http://www.w3.org/2000/svg">
<path d="M77.9809 50.6441L70.1059 42.7691C69.6136 42.277 68.9461 42.0006 68.25 42.0006C67.5539 42.0006 66.8864 42.277 66.3941 42.7691L42 67.1633V78.75H53.5867L77.9809 54.3559C78.473 53.8636 78.7494 53.1961 78.7494 52.5C78.7494 51.8039 78.473 51.1364 77.9809 50.6441ZM51.4133 73.5H47.25V69.3367L60.375 56.2117L64.5383 60.375L51.4133 73.5ZM68.25 56.6633L64.0867 52.5L68.25 48.3367L72.4133 52.5L68.25 56.6633ZM47.25 47.25V36.75H52.5V47.25H47.25ZM36.75 47.25V31.5H42V47.25H36.75ZM26.25 47.25V21H31.5V47.25H26.25Z" fill="#31BA45"/>
<path d="M31.5 78.75H15.75C14.358 78.7486 13.0235 78.195 12.0392 77.2108C11.055 76.2265 10.5014 74.892 10.5 73.5V10.5C10.5014 9.10804 11.055 7.77349 12.0392 6.78922C13.0235 5.80496 14.358 5.25139 15.75 5.25H57.75C59.142 5.25139 60.4765 5.80496 61.4608 6.78922C62.445 7.77349 62.9986 9.10804 63 10.5V36.75H57.75V10.5H15.75V73.5H31.5V78.75Z" fill="#31BA45"/>
</svg>
