<svg width="84" height="84" viewBox="0 0 84 84" fill="none" xmlns="http://www.w3.org/2000/svg">
<g clip-path="url(#clip0_113_2)">
<path d="M28.875 70.875C30.3247 70.875 31.5 69.6997 31.5 68.25C31.5 66.8003 30.3247 65.625 28.875 65.625C27.4253 65.625 26.25 66.8003 26.25 68.25C26.25 69.6997 27.4253 70.875 28.875 70.875Z" stroke="#81DE76" stroke-width="6" stroke-linecap="round" stroke-linejoin="round"/>
<path d="M65.625 70.875C67.0747 70.875 68.25 69.6997 68.25 68.25C68.25 66.8003 67.0747 65.625 65.625 65.625C64.1753 65.625 63 66.8003 63 68.25C63 69.6997 64.1753 70.875 65.625 70.875Z" stroke="#81DE76" stroke-width="6" stroke-linecap="round" stroke-linejoin="round"/>
<path d="M7.875 13.125H18.375L26.25 57.75H68.25" stroke="#81DE76" stroke-width="6" stroke-linecap="round" stroke-linejoin="round"/>
<path d="M26.25 47.25H67.1738C67.4773 47.2502 67.7715 47.1452 68.0063 46.9529C68.2412 46.7605 68.4021 46.4927 68.4616 46.1951L73.1866 22.5701C73.2248 22.3796 73.2201 22.183 73.1731 21.9945C73.126 21.806 73.0377 21.6303 72.9144 21.4801C72.7912 21.3299 72.6362 21.2089 72.4606 21.1259C72.2849 21.0429 72.093 20.9999 71.8987 21H21" stroke="#81DE76" stroke-width="6" stroke-linecap="round" stroke-linejoin="round"/>
<path d="M71.9982 5.50001C70.0544 5.50087 68.4555 6.92164 68.1202 8.75919C64.3987 10.3247 61.9444 14.0172 61.9444 18.1429V24.9558L59.9325 26.9938C59.6554 27.2746 59.5 27.6531 59.5 28.0476V29.2857C59.5 30.1141 60.1716 30.7857 61 30.7857H68.0641C68.1265 31.739 68.5281 32.6439 69.204 33.3285C69.9422 34.0763 70.9476 34.5 72 34.5C74.1146 34.5 75.8035 32.8496 75.9361 30.7857H83C83.8284 30.7857 84.5 30.1141 84.5 29.2857V28.0476C84.5 27.6531 84.3446 27.2746 84.0675 26.9938L82.0556 24.9558V19.121C82.0556 18.6557 81.8397 18.2169 81.4712 17.9329C81.4089 17.8849 81.3435 17.8422 81.2755 17.805C83.1904 16.8494 84.5 14.8545 84.5 12.5714C84.5 9.37179 81.9277 6.7381 78.7222 6.7381C77.4531 6.7381 76.2833 7.15092 75.333 7.84825C75.3265 7.5262 75.2166 7.20517 75.0016 6.93823C74.6402 6.48948 74.1833 6.12654 73.6632 5.87717C73.1436 5.62802 72.5748 5.49891 71.9982 5.50001ZM71.9982 5.50001C71.9988 5.50001 71.9994 5.50001 72 5.50001V7.00001L71.9965 5.50001C71.997 5.50001 71.9976 5.50001 71.9982 5.50001Z" fill="#81DE76" stroke="#F1FAF6" stroke-width="3" stroke-linejoin="round"/>
</g>
<defs>
<clipPath id="clip0_113_2">
<rect width="84" height="84" fill="white"/>
</clipPath>
</defs>
</svg>
