<svg width="84" height="84" viewBox="0 0 84 84" fill="none" xmlns="http://www.w3.org/2000/svg">
<g clip-path="url(#clip0_113_26)">
<path d="M74.8125 11.0251C73.91 10.4412 72.8778 10.0879 71.8067 9.99638C70.7357 9.90483 69.6585 10.0778 68.67 10.5001L36.2775 23.2576C35.5106 23.5697 34.6905 23.7301 33.8625 23.7301H13.125C11.3845 23.7301 9.71532 24.4215 8.48461 25.6522C7.2539 26.8829 6.5625 28.5521 6.5625 30.2926V30.8176H0V46.5676H6.5625V47.2501C6.60362 48.9631 7.31314 50.5921 8.53942 51.789C9.7657 52.9858 11.4115 53.6556 13.125 53.6551L21 70.3501C21.5332 71.4743 22.3728 72.4254 23.4221 73.094C24.4715 73.7626 25.6882 74.1217 26.9325 74.1301H30.24C31.9714 74.1162 33.6271 73.4187 34.8465 72.1895C36.0659 70.9603 36.7501 69.299 36.75 67.5676V54.2851L68.67 67.0426C69.4551 67.355 70.2925 67.5153 71.1375 67.5151C72.4485 67.4939 73.7251 67.0927 74.8125 66.3601C75.676 65.777 76.3883 64.9968 76.8904 64.0838C77.3925 63.1709 77.67 62.1515 77.7 61.1101V16.4326C77.6952 15.3643 77.4297 14.3133 76.9265 13.3709C76.4232 12.4286 75.6976 11.6233 74.8125 11.0251ZM30.1875 30.2926V47.2501H13.125V30.2926H30.1875ZM30.1875 67.5676H26.88L20.4225 53.6551H30.1875V67.5676ZM38.6925 48.0376C38.0692 47.719 37.4192 47.4555 36.75 47.2501V29.9251C37.4128 29.7883 38.0627 29.5951 38.6925 29.3476L71.1375 16.4326V60.9526L38.6925 48.0376ZM77.8575 32.1301V45.2551C79.598 45.2551 81.2672 44.5637 82.4979 43.3329C83.7286 42.1022 84.42 40.433 84.42 38.6926C84.42 36.9521 83.7286 35.2829 82.4979 34.0522C81.2672 32.8215 79.598 32.1301 77.8575 32.1301Z" fill="#81DE76"/>
</g>
<defs>
<clipPath id="clip0_113_26">
<rect width="84" height="84" fill="white"/>
</clipPath>
</defs>
</svg>
