<svg width="24" height="24" viewBox="0 0 24 24" fill="none" xmlns="http://www.w3.org/2000/svg">
<path d="M9.92102 1.5C9.76223 1.50001 9.60755 1.55041 9.47923 1.64394C9.35092 1.73748 9.25561 1.86933 9.20702 2.0205L8.38202 4.584C8.03552 4.7535 7.70402 4.944 7.38752 5.1585L4.75352 4.5915C4.59822 4.55834 4.4364 4.57534 4.29137 4.64003C4.14635 4.70473 4.0256 4.81379 3.94652 4.9515L1.86752 8.55C1.78813 8.68763 1.75451 8.84693 1.77149 9.0049C1.78847 9.16288 1.85519 9.31139 1.96202 9.429L3.76952 11.424C3.7432 11.8065 3.7432 12.1905 3.76952 12.573L1.96202 14.571C1.85519 14.6886 1.78847 14.8371 1.77149 14.9951C1.75451 15.1531 1.78813 15.3124 1.86752 15.45L3.94652 19.05C4.02581 19.1874 4.14666 19.2962 4.29167 19.3606C4.43667 19.425 4.59838 19.4418 4.75352 19.4085L7.38752 18.8415C7.70252 19.0545 8.03552 19.2465 8.38052 19.416L9.20702 21.9795C9.25561 22.1307 9.35092 22.2625 9.47923 22.3561C9.60755 22.4496 9.76223 22.5 9.92102 22.5H14.079C14.2378 22.5 14.3925 22.4496 14.5208 22.3561C14.6491 22.2625 14.7444 22.1307 14.793 21.9795L15.6165 19.4175C15.9621 19.2485 16.2954 19.0555 16.614 18.84L19.2465 19.4085C19.4018 19.4417 19.5636 19.4247 19.7087 19.36C19.8537 19.2953 19.9744 19.1862 20.0535 19.0485L22.1325 15.45C22.2119 15.3124 22.2455 15.1531 22.2286 14.9951C22.2116 14.8371 22.1449 14.6886 22.038 14.571L20.2305 12.573C20.2567 12.1914 20.2567 11.8086 20.2305 11.427L22.038 9.429C22.1449 9.31139 22.2116 9.16288 22.2286 9.0049C22.2455 8.84693 22.2119 8.68763 22.1325 8.55L20.0535 4.95C19.9742 4.81256 19.8534 4.70381 19.7084 4.63939C19.5634 4.57497 19.4017 4.55821 19.2465 4.5915L16.614 5.16C16.296 4.9455 15.963 4.752 15.6165 4.5825L14.7915 2.0205C14.7431 1.86982 14.6482 1.73832 14.5205 1.64482C14.3928 1.55133 14.2388 1.50064 14.0805 1.5H9.92252H9.92102ZM10.47 3H13.53L14.382 5.6505L14.9565 5.931C15.2389 6.06921 15.5116 6.22657 15.7725 6.402L16.3035 6.762L19.0275 6.174L20.5575 8.826L18.69 10.893L18.735 11.529C18.7566 11.8426 18.7566 12.1574 18.735 12.471L18.69 13.107L20.5605 15.174L19.029 17.826L16.305 17.2395L15.774 17.598C15.5131 17.7734 15.2404 17.9308 14.958 18.069L14.3835 18.3495L13.53 21H10.467L9.61202 18.348L9.03902 18.069C8.75691 17.9311 8.48475 17.7737 8.22452 17.598L7.69502 17.2395L4.96952 17.826L3.43952 15.174L5.30852 13.107L5.26352 12.471C5.2419 12.1569 5.2419 11.8416 5.26352 11.5275L5.30852 10.8915L3.43802 8.826L4.96952 6.174L7.69502 6.759L8.22452 6.402C8.48472 6.22622 8.75688 6.06884 9.03902 5.931L9.61202 5.652L10.4685 3H10.47ZM12 7.5C10.8065 7.5 9.66195 7.97411 8.81804 8.81802C7.97412 9.66193 7.50002 10.8065 7.50002 12C7.50002 13.1935 7.97412 14.3381 8.81804 15.182C9.66195 16.0259 10.8065 16.5 12 16.5C13.1935 16.5 14.3381 16.0259 15.182 15.182C16.0259 14.3381 16.5 13.1935 16.5 12C16.5 10.8065 16.0259 9.66193 15.182 8.81802C14.3381 7.97411 13.1935 7.5 12 7.5ZM12 9C12.7957 9 13.5587 9.31607 14.1213 9.87868C14.684 10.4413 15 11.2044 15 12C15 12.7956 14.684 13.5587 14.1213 14.1213C13.5587 14.6839 12.7957 15 12 15C11.2044 15 10.4413 14.6839 9.8787 14.1213C9.31609 13.5587 9.00002 12.7956 9.00002 12C9.00002 11.2044 9.31609 10.4413 9.8787 9.87868C10.4413 9.31607 11.2044 9 12 9Z" fill="white"/>
</svg>
