<svg width="24" height="24" viewBox="0 0 24 24" fill="none" xmlns="http://www.w3.org/2000/svg">
<path d="M2 5.25C2 4.38805 2.34241 3.5614 2.9519 2.9519C3.5614 2.34241 4.38805 2 5.25 2H15.75C16.612 2 17.4386 2.34241 18.0481 2.9519C18.6576 3.5614 19 4.38805 19 5.25V10.007C18.9168 10.0023 18.8334 9.99992 18.75 10H17.5V5.25C17.5 4.78587 17.3156 4.34075 16.9874 4.01256C16.6592 3.68437 16.2141 3.5 15.75 3.5H5.25C4.78587 3.5 4.34075 3.68437 4.01256 4.01256C3.68437 4.34075 3.5 4.78587 3.5 5.25V16.75C3.5 17.716 4.284 18.5 5.25 18.5H6V18.75C6 19.185 6.065 19.605 6.187 20H5.25C4.38805 20 3.5614 19.6576 2.9519 19.0481C2.34241 18.4386 2 17.612 2 16.75V5.25ZM6.75 5C6.55109 5 6.36032 5.07902 6.21967 5.21967C6.07902 5.36032 6 5.55109 6 5.75C6 5.94891 6.07902 6.13968 6.21967 6.28033C6.36032 6.42098 6.55109 6.5 6.75 6.5H14.25C14.4489 6.5 14.6397 6.42098 14.7803 6.28033C14.921 6.13968 15 5.94891 15 5.75C15 5.55109 14.921 5.36032 14.7803 5.21967C14.6397 5.07902 14.4489 5 14.25 5H6.75ZM8 8.25C8 8.05109 8.07902 7.86032 8.21967 7.71967C8.36032 7.57902 8.55109 7.5 8.75 7.5H14.25C14.4489 7.5 14.6397 7.57902 14.7803 7.71967C14.921 7.86032 15 8.05109 15 8.25C15 8.44891 14.921 8.63968 14.7803 8.78033C14.6397 8.92098 14.4489 9 14.25 9H8.75C8.55109 9 8.36032 8.92098 8.21967 8.78033C8.07902 8.63968 8 8.44891 8 8.25ZM7 14.25C7 13.388 7.34241 12.5614 7.9519 11.9519C8.5614 11.3424 9.38805 11 10.25 11H18.75C19.1768 11 19.5994 11.0841 19.9937 11.2474C20.388 11.4107 20.7463 11.6501 21.0481 11.9519C21.3499 12.2537 21.5893 12.612 21.7526 13.0063C21.9159 13.4006 22 13.8232 22 14.25V18.75C22 19.1768 21.9159 19.5994 21.7526 19.9937C21.5893 20.388 21.3499 20.7463 21.0481 21.0481C20.7463 21.3499 20.388 21.5893 19.9937 21.7526C19.5994 21.9159 19.1768 22 18.75 22H10.25C9.8232 22 9.40059 21.9159 9.00628 21.7526C8.61197 21.5893 8.25369 21.3499 7.9519 21.0481C7.65011 20.7463 7.41072 20.388 7.24739 19.9937C7.08406 19.5994 7 19.1768 7 18.75V14.25ZM10.25 12.5C9.746 12.5 9.291 12.713 8.972 13.055L14.5 16.608L20.028 13.055C19.8645 12.8797 19.6667 12.7399 19.4468 12.6444C19.2269 12.5489 18.9897 12.4998 18.75 12.5H10.25ZM8.5 18.75C8.5 19.716 9.284 20.5 10.25 20.5H18.75C19.2141 20.5 19.6592 20.3156 19.9874 19.9874C20.3156 19.6592 20.5 19.2141 20.5 18.75V14.534L14.906 18.131C14.7849 18.2089 14.644 18.2504 14.5 18.2504C14.356 18.2504 14.2151 18.2089 14.094 18.131L8.5 14.534V18.75Z" fill="white"/>
</svg>
