<svg width="23" height="23" viewBox="0 0 23 23" fill="none" xmlns="http://www.w3.org/2000/svg">
<path d="M18.2083 16.2917V11.3084C17.7292 11.4042 17.25 11.5001 16.7708 11.5001H16.2917V17.2501H6.70833V10.5417C6.70833 7.85841 8.81667 5.75008 11.5 5.75008C11.5958 4.50425 12.1708 3.45008 12.9375 2.58758C12.65 2.20425 12.075 1.91675 11.5 1.91675C10.4458 1.91675 9.58333 2.77925 9.58333 3.83341V4.12091C6.70833 4.98341 4.79167 7.57091 4.79167 10.5417V16.2917L2.875 18.2084V19.1667H20.125V18.2084L18.2083 16.2917ZM9.58333 20.1251C9.58333 21.1792 10.4458 22.0417 11.5 22.0417C12.5542 22.0417 13.4167 21.1792 13.4167 20.1251H9.58333ZM20.125 6.22925C20.125 8.05008 18.5917 9.58341 16.7708 9.58341C14.95 9.58341 13.4167 8.05008 13.4167 6.22925C13.4167 4.40841 14.95 2.87508 16.7708 2.87508C18.5917 2.87508 20.125 4.40841 20.125 6.22925Z" fill="#252525"/>
<circle cx="16.7708" cy="6.22917" r="3.35417" fill="#31BA45"/>
</svg>
